<svg height="512" viewBox="0 0 64 64" width="512" xmlns="http://www.w3.org/2000/svg"><g id="coronavirus-covid19-virus-calendar-day"><path d="m57 9h-6v3a3 3 0 0 1 -6 0v-3h-26v3a3 3 0 0 1 -6 0v-3h-6a4 4 0 0 0 -4 4v8h58v-8a4 4 0 0 0 -4-4z" fill="#9bc9ff"/><rect fill="#9bc9ff" height="4" rx="1" width="4" x="18" y="29"/><rect fill="#9bc9ff" height="4" rx="1" width="4" x="26" y="29"/><rect fill="#9bc9ff" height="4" rx="1" width="4" x="34" y="29"/><rect fill="#9bc9ff" height="4" rx="1" width="4" x="34" y="37"/><rect fill="#9bc9ff" height="4" rx="1" width="4" x="42" y="29"/><rect fill="#9bc9ff" height="4" rx="1" width="4" x="50" y="29"/><rect fill="#9bc9ff" height="4" rx="1" width="4" x="18" y="37"/><rect fill="#9bc9ff" height="4" rx="1" width="4" x="26" y="37"/><rect fill="#9bc9ff" height="4" rx="1" width="4" x="18" y="45"/><rect fill="#9bc9ff" height="4" rx="1" width="4" x="10" y="29"/><rect fill="#9bc9ff" height="4" rx="1" width="4" x="10" y="37"/><rect fill="#9bc9ff" height="4" rx="1" width="4" x="10" y="45"/><rect fill="#9bc9ff" height="4" rx="1" width="4" x="26" y="45"/><path d="m48 52h5v-8z" fill="#9bc9ff"/><circle cx="49" cy="49" fill="#9bc9ff" r="12"/><g fill="#1e81ce"><path d="m57 8h-5v-2a4 4 0 0 0 -8 0v2h-24v-2a4 4 0 0 0 -8 0v2h-5a5 5 0 0 0 -5 5v40a5 5 0 0 0 5 5h28a1 1 0 0 0 0-2h-28a3.009 3.009 0 0 1 -3-3v-31h56v17a1 1 0 0 0 2 0v-26a5 5 0 0 0 -5-5zm-11-2a2 2 0 0 1 4 0v6a2 2 0 0 1 -4 0zm-32 0a2 2 0 0 1 4 0v6a2 2 0 0 1 -4 0zm46 14h-56v-7a3.009 3.009 0 0 1 3-3h5v2a4 4 0 0 0 8 0v-2h24v2a4 4 0 0 0 8 0v-2h5a3.009 3.009 0 0 1 3 3z"/><path d="m21 34h-2a2 2 0 0 1 -2-2v-2a2 2 0 0 1 2-2h2a2 2 0 0 1 2 2v2a2 2 0 0 1 -2 2zm-2-4v2h2v-2z"/><path d="m29 34h-2a2 2 0 0 1 -2-2v-2a2 2 0 0 1 2-2h2a2 2 0 0 1 2 2v2a2 2 0 0 1 -2 2zm-2-4v2h2v-2z"/><path d="m37 34h-2a2 2 0 0 1 -2-2v-2a2 2 0 0 1 2-2h2a2 2 0 0 1 2 2v2a2 2 0 0 1 -2 2zm-2-4v2h2v-2z"/><path d="m45 34h-2a2 2 0 0 1 -2-2v-2a2 2 0 0 1 2-2h2a2 2 0 0 1 2 2v2a2 2 0 0 1 -2 2zm-2-4v2h2v-2z"/><path d="m53 34h-2a2 2 0 0 1 -2-2v-2a2 2 0 0 1 2-2h2a2 2 0 0 1 2 2v2a2 2 0 0 1 -2 2zm-2-4v2h2v-2z"/><path d="m21 42h-2a2 2 0 0 1 -2-2v-2a2 2 0 0 1 2-2h2a2 2 0 0 1 2 2v2a2 2 0 0 1 -2 2zm-2-4v2h2v-2z"/><path d="m29 42h-2a2 2 0 0 1 -2-2v-2a2 2 0 0 1 2-2h2a2 2 0 0 1 2 2v2a2 2 0 0 1 -2 2zm-2-4v2h2v-2z"/><path d="m21 50h-2a2 2 0 0 1 -2-2v-2a2 2 0 0 1 2-2h2a2 2 0 0 1 2 2v2a2 2 0 0 1 -2 2zm-2-4v2h2v-2z"/><path d="m13 34h-2a2 2 0 0 1 -2-2v-2a2 2 0 0 1 2-2h2a2 2 0 0 1 2 2v2a2 2 0 0 1 -2 2zm-2-4v2h2v-2z"/><path d="m13 42h-2a2 2 0 0 1 -2-2v-2a2 2 0 0 1 2-2h2a2 2 0 0 1 2 2v2a2 2 0 0 1 -2 2zm-2-4v2h2v-2z"/><path d="m13 50h-2a2 2 0 0 1 -2-2v-2a2 2 0 0 1 2-2h2a2 2 0 0 1 2 2v2a2 2 0 0 1 -2 2zm-2-4v2h2v-2z"/><path d="m29 50h-2a2 2 0 0 1 -2-2v-2a2 2 0 0 1 2-2h2a2 2 0 0 1 2 2v2a2 2 0 0 1 -2 2zm-2-4v2h2v-2z"/><path d="m36 42h-1a2 2 0 0 1 -2-2v-2a2 2 0 0 1 2-2h2a2 2 0 0 1 2 2 1 1 0 0 1 -2 0h-2v2h1a1 1 0 0 1 0 2z"/><path d="m49 62a13 13 0 1 1 13-13 13.015 13.015 0 0 1 -13 13zm0-24a11 11 0 1 0 11 11 11.013 11.013 0 0 0 -11-11z"/><path d="m45 55a1 1 0 0 1 -1-1v-8.131l-1.445.963a1 1 0 0 1 -1.11-1.664l3-2a1 1 0 0 1 1.555.832v10a1 1 0 0 1 -1 1z"/><path d="m53 55a1 1 0 0 1 -1-1v-1h-4a1 1 0 0 1 -.848-1.53l5-8a1 1 0 0 1 1.848.53v7h1a1 1 0 0 1 0 2h-1v1a1 1 0 0 1 -1 1zm-3.195-4h2.195v-3.513z"/></g></g></svg>